<?xml version="1.0" standalone="no"?>
<!DOCTYPE svg PUBLIC "-//W3C//DTD SVG 1.1//EN" "http://www.w3.org/Graphics/SVG/1.1/DTD/svg11.dtd" >
<svg xmlns="http://www.w3.org/2000/svg">
<metadata>
This is a custom SVG webfont generated by Font Squirrel.
Copyright   : c 2001 CHANK By Chank Diesel for wwwchankcom Do NOT redistribute this font Good Luck 
</metadata>
<defs>
<font id="YearlingLiteRegular" horiz-adv-x="985" >
<font-face units-per-em="2048" ascent="1638" descent="-410" />
<missing-glyph horiz-adv-x="493" />
<glyph unicode=" "  horiz-adv-x="493" />
<glyph unicode="&#x09;" horiz-adv-x="493" />
<glyph unicode="&#xa0;" horiz-adv-x="493" />
<glyph unicode="!" horiz-adv-x="411" d="M133 70q0 78 72 77q72 0 71 -77q0 -78 -71 -78q-72 0 -72 78zM166 344v973h80v-973h-80z" />
<glyph unicode="&#x22;" horiz-adv-x="768" d="M180 1436h101l-29 -484h-39zM453 1436h100l-29 -484h-39z" />
<glyph unicode="#" horiz-adv-x="860" d="M66 430l2 49h176l26 320h-174l2 49h176l29 348h47l-28 -348h225l28 348h48l-29 -348h178l-2 -49h-180l-27 -320h178l-2 -49h-180l-20 -252h-47l20 252h-225l-21 -252h-47l21 252h-174zM291 479h225l27 320h-226z" />
<glyph unicode="$" horiz-adv-x="1001" d="M162 303v109h86v-109q0 -55 67 -55h101v448l-115 68q-139 84 -139 182v141q0 68 53 113q45 39 94 39h107v168h69v-168h115q61 0 102 -47q35 -41 35 -88v-96h-82v96q0 55 -61 55h-109v-411l138 -84q115 -72 114 -191v-143q0 -63 -44 -112.5t-111 -49.5h-97v-168h-69v168 h-101q-55 0 -100 33q-53 39 -53 102zM248 971q0 -78 86 -131l82 -52v371h-107q-25 0 -43 -20.5t-18 -51.5v-116zM485 248h97q27 0 50 22.5t23 59.5v119q0 102 -67 143l-103 61v-405z" />
<glyph unicode="%" horiz-adv-x="1169" d="M135 739v359q0 31 22.5 54.5t55.5 23.5h172q33 0 55.5 -24t22.5 -54v-353q0 -33 -20.5 -57t-53.5 -24h-182q-72 -1 -72 75zM203 741q0 -2 4 -6h184q2 4 2 13v350q0 8 -8 8h-172q-8 0 -8 -8zM211 0l688 1186h76l-688 -1186h-76zM702 74l3 358q0 31 21.5 54.5t53.5 23.5 h174q33 0 54.5 -23.5t21.5 -54.5v-352q0 -33 -20.5 -57.5t-51.5 -24.5h-184q-72 0 -72 76zM772 74l2 -6h184q4 4 5 12v352q0 8 -9 8h-174q-8 0 -8 -8v-358z" />
<glyph unicode="&#x26;" horiz-adv-x="1165" d="M164 0v559q0 55 26 103q37 63 109 63h195l-240 383q-27 41 -27 84q0 53 41 90t99 37h329v-82h-301q-84 0 -84 -47q0 -18 15 -41l467 -774l208 248l54 -56l-219 -264l188 -303l-94 2l-148 238l-153 -170q-66 -70 -174 -70h-291zM248 82h213q66 0 135 74l145 153l-204 334 h-226q-63 0 -63 -78v-483z" />
<glyph unicode="'" horiz-adv-x="468" d="M172 1436h102l-28 -484h-41z" />
<glyph unicode="(" horiz-adv-x="548" d="M137 672q0 414 279 790l18 -12q-221 -412 -221 -778q0 -231 92 -498q59 -166 129 -289l-20 -12q-277 375 -277 799z" />
<glyph unicode=")" horiz-adv-x="573" d="M137 -115q70 123 127 289q94 266 94 498q0 367 -221 778l17 12q281 -377 280 -790q0 -424 -278 -799z" />
<glyph unicode="*" horiz-adv-x="774" d="M102 1104l25 76l244 -119l-25 297h80l-27 -301l246 125l25 -76l-262 -72l204 -233l-63 -47l-162 264l-160 -270l-63 45l205 241z" />
<glyph unicode="+" horiz-adv-x="897" d="M117 553v82h293v309h84v-309h292v-82h-292v-307h-84v307h-293z" />
<glyph unicode="," horiz-adv-x="466" d="M82 -272l90 434h102v-47l-151 -387h-41z" />
<glyph unicode="-" horiz-adv-x="690" d="M84 475v78h500v-78h-500z" />
<glyph unicode="." horiz-adv-x="407" d="M123 66q0 29 21.5 50t50.5 21q31 0 52 -21.5t21 -49.5q0 -31 -21.5 -51.5t-51.5 -20.5q-29 0 -50.5 20.5t-21.5 51.5z" />
<glyph unicode="/" horiz-adv-x="811" d="M76 0l551 1436h82l-551 -1436h-82z" />
<glyph unicode="0" horiz-adv-x="1087" d="M164 133v967q0 57 39 97t94 40h387q55 0 95 -40t40 -97v-967q0 -59 -34.5 -96t-88.5 -37h-411q-53 0 -87 37t-34 96zM248 137q0 -55 49 -55h393q49 0 49 49v967q0 57 -49 57h-393q-49 0 -49 -55v-963z" />
<glyph unicode="1" horiz-adv-x="491" d="M113 1036v47q63 0 110 45.5t47 108.5h58v-1237h-80v1036h-135z" />
<glyph unicode="2" horiz-adv-x="897" d="M164 0v328q0 82 92 137l432 256q51 31 51 80v289q0 66 -53 65h-383q-55 0 -55 -59v-90h-84v84q0 55 44 101t101 46h365q55 0 100 -45t45 -102v-287q0 -96 -123 -170l-403 -242q-45 -27 -45 -74v-235h571v-82h-655z" />
<glyph unicode="3" horiz-adv-x="946" d="M123 137v109h84v-113q0 -49 45 -49h401q45 0 45 47v434q0 47 -43 47h-342v84h342q43 0 43 49v365q0 47 -47 47h-395q-49 0 -49 -47v-90h-84v84q0 133 127 133h412q51 0 86 -45q31 -37 30 -70v-358q0 -82 -49 -105q49 -14 49 -104v-426q0 -43 -24 -82q-31 -47 -76 -47 h-428q-55 0 -91 40t-36 97z" />
<glyph unicode="4" horiz-adv-x="1038" d="M82 367v73l596 807h61v-798h146v-82h-146v-367h-84v367h-573zM184 449h471v628z" />
<glyph unicode="5" horiz-adv-x="1007" d="M164 137v240h84v-240q0 -55 51 -55h383q20 0 38.5 21.5t18.5 46.5v464q0 61 -53 62h-522v561h639v-82h-555v-399h442q55 0 92 -42t37 -108v-452q0 -70 -39 -112t-96 -42h-377q-70 0 -106.5 39t-36.5 98z" />
<glyph unicode="6" d="M164 176v909q0 152 129 152h493v-82h-497q-41 0 -41 -55v-355h424q147 0 147 -157v-432q0 -154 -151 -154h-351q-153 0 -153 174zM248 166q0 -35 20.5 -59.5t48.5 -24.5h363q23 0 41 22.5t18 49.5v442q0 70 -59 70h-432v-500z" />
<glyph unicode="7" horiz-adv-x="976" d="M96 1155v82h715v-70q-164 -256 -264 -559q-106 -315 -119 -608h-88q35 328 129 635q84 272 252 520h-625z" />
<glyph unicode="8" horiz-adv-x="1036" d="M164 145v418q0 31 28.5 75t61.5 44v4q-33 0 -64 43q-27 37 -26 62v290q0 156 141 156h373q141 0 141 -156v-295q0 -33 -20 -61q-27 -39 -72 -39v-4q45 0 72 -45q20 -35 20 -72v-420q0 -76 -59 -116q-39 -29 -74 -29h-389q-37 0 -78 31q-55 42 -55 114zM248 154 q0 -72 65 -72h361q25 0 45 19.5t20 43.5v435q0 55 -69 55h-353q-70 0 -69 -53v-428zM248 797q0 -31 21.5 -54.5t47.5 -23.5h353q25 0 47 23.5t22 50.5v294q0 68 -49 68h-393q-49 0 -49 -65v-293z" />
<glyph unicode="9" d="M164 651v432q0 154 149 154h351q156 0 155 -174v-909q0 -152 -131 -152h-493v80h501q43 0 43 55v357h-430q-147 -1 -145 157zM248 643q0 -70 57 -70h434v500q0 35 -21.5 59.5t-49.5 24.5h-363q-23 0 -40 -22.5t-17 -49.5v-442z" />
<glyph unicode=":" horiz-adv-x="405" d="M133 289q0 78 70 78q72 0 71 -78q0 -78 -71 -78q-70 0 -70 78zM133 758q0 78 72 78t71 -78q0 -78 -71 -78q-72 0 -72 78z" />
<glyph unicode=";" horiz-adv-x="411" d="M82 -82l90 414h82v-47l-131 -367h-41zM133 760q0 78 72 78t71 -78q0 -78 -71 -78q-72 0 -72 78z" />
<glyph unicode="&#x3c;" horiz-adv-x="1040" d="M135 473v121l754 381v-92l-690 -351l690 -364v-92z" />
<glyph unicode="=" horiz-adv-x="1046" d="M135 326v82h754v-82h-754zM135 715v82h754v-82h-754z" />
<glyph unicode="&#x3e;" horiz-adv-x="1071" d="M135 76v92l688 364l-688 351v92l754 -381v-121z" />
<glyph unicode="?" horiz-adv-x="872" d="M145 1237l21 82h414q41 0 74.5 -35t33.5 -94v-418q0 -55 -37 -96t-78 -41h-229q-59 0 -59 -64v-217h-78v232q0 57 30.5 94t77.5 37h226q66 0 65 71v379q0 70 -67 70h-394zM174 70q0 78 72 77q72 0 71 -77q0 -78 -71 -78q-72 0 -72 78z" />
<glyph unicode="@" horiz-adv-x="1392" d="M133 174v965q0 78 49 128t121 50h680q78 0 125 -52.5t47 -125.5v-715q0 -57 -37 -93t-92 -36l-504 -2q-39 0 -63.5 23.5t-24.5 54.5v293q0 59 51 59h293v145q0 55 -43 56h-268l41 71h250q33 0 60.5 -27.5t27.5 -56.5v-538h151q84 0 84 84v667q0 109 -92 109h-690 q-39 0 -68.5 -32t-29.5 -79v-889q0 -57 31.5 -104t84.5 -47h813q-6 -55 -43 -70q-25 -10 -92 -10h-704q-51 0 -104.5 60.5t-53.5 111.5zM502 371h270v276h-270v-276z" />
<glyph unicode="A" horiz-adv-x="1015" d="M68 0l411 1319h43l412 -1319h-82l-113 356h-477l-112 -356h-82zM289 440h424l-213 672z" />
<glyph unicode="B" d="M164 2v1317h475q70 0 123 -56.5t53 -121.5v-316q0 -135 -88 -147v-4q94 -18 94 -162v-336q0 -72 -50 -123t-120 -51h-487zM248 82h393q37 0 67.5 30.5t30.5 69.5v357q0 39 -26.5 67.5t-61.5 28.5h-403v-553zM248 719h405q37 0 61.5 26.5t24.5 61.5v336q0 39 -29.5 67.5 t-68.5 28.5h-393v-520z" />
<glyph unicode="C" d="M164 197v931q0 63 55 126t125 63h332q70 0 126 -62.5t56 -126.5v-163h-82v170q0 35 -32.5 69.5t-65.5 34.5h-332q-37 0 -67.5 -34t-30.5 -72v-945q0 -33 37 -69.5t67 -36.5h322q37 0 69.5 36t32.5 72v140h82v-137q0 -68 -55 -128.5t-127 -60.5h-326q-74 0 -130 62.5 t-56 130.5z" />
<glyph unicode="D" horiz-adv-x="1052" d="M164 2v1317h538q68 0 133.5 -67.5t65.5 -131.5v-925q0 -66 -60.5 -129.5t-121.5 -63.5h-555zM246 82h459q33 0 73.5 41t40.5 76v897q0 53 -42 97t-89 44h-442v-1155z" />
<glyph unicode="E" d="M164 2v1317h624v-82h-540v-518h491v-84h-491v-553h571v-80h-655z" />
<glyph unicode="F" horiz-adv-x="899" d="M164 2v1317h606v-82h-522v-518h432v-84h-432v-633h-84z" />
<glyph unicode="G" horiz-adv-x="1044" d="M164 193v950q0 63 48 119.5t116 56.5h411v-82h-407q-37 0 -60.5 -34t-23.5 -68v-942q0 -41 33.5 -77t76.5 -36h381v555h-245v82h325v-715h-463q-82 0 -137 56.5t-55 134.5z" />
<glyph unicode="H" d="M164 2v1317h84v-602h491v602h80v-1317h-80v631h-491v-631h-84z" />
<glyph unicode="I" horiz-adv-x="358" d="M143 2v1317h84v-1317h-84z" />
<glyph unicode="J" horiz-adv-x="946" d="M123 199v143h84v-135q0 -47 30.5 -86t69.5 -39h287q41 0 72.5 44t31.5 83v1110h80v-1120q0 -70 -49 -129q-53 -68 -127 -68h-305q-66 0 -120 65.5t-54 131.5z" />
<glyph unicode="K" horiz-adv-x="942" d="M164 2v1317h82v-598l481 598h104l-481 -604l504 -715h-100l-463 647l-45 -57v-588h-82z" />
<glyph unicode="L" horiz-adv-x="899" d="M164 2v1317h84v-1235h528v-82h-612z" />
<glyph unicode="M" horiz-adv-x="1359" d="M164 2v1317l51 4l440 -1042l445 1042l49 -4v-1317h-82v989l14 43l-32 -43l-381 -911h-21l-377 911l-34 43l12 -43v-989h-84z" />
<glyph unicode="N" horiz-adv-x="1067" d="M131 1319h86l580 -1063l39 -43l-17 41v1065h82v-1319h-59l-594 1038v-1036h-84v1237z" />
<glyph unicode="O" horiz-adv-x="1120" d="M164 217v879q0 80 55 147q59 76 141 76h383q84 0 141.5 -67.5t57.5 -149.5v-885q0 -80 -55 -145q-57 -72 -139 -72h-390q-80 0 -139 72q-55 65 -55 145zM248 225q0 -51 41 -97t92 -46h354q47 0 87 46t40 97v862q0 59 -39 104.5t-88 45.5h-354q-53 0 -93 -45t-40 -98v-869 z" />
<glyph unicode="P" horiz-adv-x="954" d="M164 2v1317h465q72 0 131 -63.5t59 -149.5v-426q0 -84 -60.5 -146.5t-129.5 -62.5h-383v-469h-82zM246 553h381q43 0 76.5 43t33.5 88v426q0 45 -36.5 87t-73.5 42h-381v-686z" />
<glyph unicode="Q" horiz-adv-x="1067" d="M164 217v879q0 80 55 147q59 76 141 76h383q84 0 141.5 -67.5t57.5 -149.5v-885q0 -80 -55 -145q-57 -72 -139 -72h-175v-326h-81v326h-134q-80 0 -139 72q-55 65 -55 145zM248 225q0 -51 41 -97t92 -46h354q47 0 87 46t40 97v862q0 59 -39 104.5t-88 45.5h-354 q-53 0 -93 -45t-40 -98v-869z" />
<glyph unicode="R" d="M164 2v1317h495q68 0 114 -45t46 -115v-319q0 -72 -49 -121q-39 -41 -84 -41v-4q45 0 84 -35q49 -41 49 -104v-408q0 -41 37 -127h-86q-33 82 -33 125l2 424q0 35 -33.5 60.5t-84.5 25.5h-373l-2 -635zM248 719h395q20 0 58 28.5t38 59.5v356q0 31 -23.5 53.5t-53.5 22.5 h-414v-520z" />
<glyph unicode="S" horiz-adv-x="1001" d="M162 137v109h86v-107q0 -57 67 -57h349q27 0 50 23.5t23 60.5v283q0 102 -67 135l-369 180q-53 27 -96 84t-43 106v213q0 66 53 111q45 39 94 39h373q61 0 102 -47q35 -41 35 -86v-99h-82v97q0 55 -61 55h-367q-25 0 -43 -21.5t-18 -50.5v-190q0 -84 86 -127l371 -180 q115 -57 114 -191v-313q0 -63 -44 -112.5t-111 -49.5h-349q-55 0 -100 33q-53 39 -53 102z" />
<glyph unicode="T" d="M84 1237v82h819v-82h-366v-1235h-84v1235h-369z" />
<glyph unicode="U" horiz-adv-x="1067" d="M164 199v1120h84v-1112q0 -47 30.5 -86t69.5 -39h369q41 0 71.5 43t30.5 84v1110h82v-1120q0 -70 -49 -129q-53 -68 -127 -68h-387q-66 0 -120 65.5t-54 131.5z" />
<glyph unicode="V" horiz-adv-x="1067" d="M94 1319h88l350 -1133l353 1133h88l-412 -1319h-55z" />
<glyph unicode="W" horiz-adv-x="1507" d="M78 1317h96l268 -1088l19 21l272 985h53l265 -979l26 -27l260 1088h107l-344 -1317h-62l-276 1024l-12 -61l-285 -963h-43z" />
<glyph unicode="X" horiz-adv-x="1013" d="M129 0l348 662l-348 657h94l301 -569l301 569h95l-351 -657l351 -662h-89l-307 578l-307 -578h-88z" />
<glyph unicode="Y" d="M164 750v569h82v-561q0 -45 31.5 -85t70.5 -40h287q39 0 72 47q31 41 30 80v559h82v-569q0 -70 -49 -129q-53 -68 -125 -68h-110v-551h-84v551h-111q-68 0 -122 65.5t-54 131.5z" />
<glyph unicode="Z" horiz-adv-x="1021" d="M129 0v72l672 1165h-672v82h772v-72l-670 -1165h670v-82h-772z" />
<glyph unicode="[" horiz-adv-x="618" d="M164 -164v1483h328v-82h-246v-1321h246v-80h-328z" />
<glyph unicode="\" horiz-adv-x="851" d="M133 1319h82l520 -1319h-67z" />
<glyph unicode="]" horiz-adv-x="616" d="M121 -84h246v1321h-246v82h328v-1483h-328v80z" />
<glyph unicode="^" horiz-adv-x="899" d="M125 1094l233 286q33 43 86 43q55 0 93 -47l227 -282l-57 -58l-226 283q-16 20 -37 20q-20 0 -34 -20l-226 -283z" />
<glyph unicode="_" horiz-adv-x="813" d="M-27 -348h879v-66h-879v66z" />
<glyph unicode="`" horiz-adv-x="573" d="M133 1436h96l195 -334h-70z" />
<glyph unicode="a" horiz-adv-x="944" d="M164 137v350q0 59 51 105q45 43 98 43h383v203q0 43 -41 43h-409v82h430q102 0 102 -111v-852h-471q-55 0 -99 41t-44 96zM246 152q0 -25 22.5 -47.5t46.5 -22.5h381v471h-370q-31 0 -55.5 -25.5t-24.5 -56.5v-319z" />
<glyph unicode="b" horiz-adv-x="901" d="M164 0v1436h82v-473h329q61 0 111.5 -45.5t50.5 -120.5v-652q0 -55 -39 -100t-92 -45h-442zM246 82h340q25 0 47 22.5t22 47.5v647q0 31 -24.5 56.5t-55.5 25.5h-329v-799z" />
<glyph unicode="c" horiz-adv-x="872" d="M164 135v690q0 57 39 97.5t96 40.5h307q55 0 93 -40t38 -98v-106h-82v100q0 61 -61 62h-287q-61 0 -61 -62v-676q0 -61 61 -61h348v-82h-370q-53 0 -87 38t-34 97z" />
<glyph unicode="d" horiz-adv-x="901" d="M164 145v652q0 76 53 123q47 43 109 43h329v473h82v-1436h-442q-53 0 -92 45t-39 100zM246 152q0 -25 22.5 -47.5t46.5 -22.5h340v799h-329q-31 0 -55.5 -26t-24.5 -56v-647z" />
<glyph unicode="e" horiz-adv-x="925" d="M164 145v666q0 63 45 107.5t108 44.5h318q55 0 99 -41t44 -97v-399h-532v-274q0 -31 21.5 -50.5t47.5 -19.5h381l2 -82h-381q-59 0 -106 45t-47 100zM246 510h450v301q0 25 -22.5 47.5t-46.5 22.5h-308q-74 0 -73 -70v-301z" />
<glyph unicode="f" horiz-adv-x="688" d="M80 881v82h166v340q0 55 38 94t101 39h209v-80h-205q-61 0 -61 -62v-331h223v-82h-223v-881h-82v881h-166z" />
<glyph unicode="g" horiz-adv-x="899" d="M164 125v704q0 55 38 94.5t101 39.5h434v-1239q0 -55 -37.5 -94.5t-101.5 -39.5h-393l41 80h348q61 0 61 62v268h-383q-41 0 -71 31q-37 37 -37 94zM246 143q0 -61 61 -61h348v799h-348q-61 0 -61 -62v-676z" />
<glyph unicode="h" horiz-adv-x="901" d="M164 0v1436h82v-473h352q63 0 101 -39t38 -95v-829h-82v819q0 61 -61 62h-348v-881h-82z" />
<glyph unicode="i" horiz-adv-x="407" d="M137 1196q0 66 64 66q66 0 65 -66q0 -63 -65 -63q-64 0 -64 63zM160 -6v969h88v-969h-88z" />
<glyph unicode="j" horiz-adv-x="409" d="M-41 -410l41 80h102q61 0 62 62v1231h82v-1239q0 -55 -38 -94.5t-102 -39.5h-147zM139 1196q0 66 64 66q66 0 65 -66q0 -63 -65 -63q-64 0 -64 63z" />
<glyph unicode="k" horiz-adv-x="899" d="M164 2v1317h82v-830l416 476h98l-373 -443l373 -522h-98l-336 457l-80 -86v-369h-82z" />
<glyph unicode="l" horiz-adv-x="407" d="M164 0v1436h82v-1436h-82z" />
<glyph unicode="m" horiz-adv-x="1368" d="M164 0v963h434q90 0 119 -82q4 35 40 58.5t77 23.5h253q63 0 101.5 -39t38.5 -95v-829h-82v821q0 61 -62 62h-237q-49 0 -80 -49q-29 -41 -29 -86v-748h-82v780q0 102 -82 103h-327v-883h-82z" />
<glyph unicode="n" horiz-adv-x="901" d="M164 0v963h434q63 0 101 -39t38 -95v-829h-82v821q0 61 -61 62h-348v-883h-82z" />
<glyph unicode="o" horiz-adv-x="903" d="M141 135l2 690q0 55 40 96.5t96 41.5h348q55 0 93 -40t38 -98v-673q0 -63 -35 -107.5t-86 -44.5h-373q-53 0 -88 38t-35 97zM225 143q0 -61 62 -61h327q61 0 62 61v678q0 59 -62 60h-327q-61 0 -62 -60v-678z" />
<glyph unicode="p" horiz-adv-x="899" d="M164 -410v1373h434q63 0 101 -39t38 -95v-704q0 -57 -33.5 -91t-74.5 -34h-383v-410h-82zM246 82h348q61 0 61 61v676q0 61 -61 62h-348v-799z" />
<glyph unicode="q" horiz-adv-x="899" d="M164 125v704q0 55 38 94.5t101 39.5h434v-1373h-82v410h-383q-41 0 -71 31q-37 37 -37 94zM246 143q0 -61 61 -61h348v799h-348q-61 0 -61 -62v-676z" />
<glyph unicode="r" horiz-adv-x="819" d="M164 0v963h352q68 0 124 -47.5t56 -116.5v-164h-82v149q0 39 -33.5 68t-68.5 29h-266v-881h-82z" />
<glyph unicode="s" horiz-adv-x="944" d="M162 139v45h82v-41q0 -61 61 -61h318q61 0 61 61v203q0 33 -61 64l-336 163q-123 59 -123 146v106q-2 55 38 96.5t97 41.5h338q55 0 93 -40t38 -98v-45h-82v41q0 59 -61 60h-318q-61 0 -61 -60v-88q0 -43 61 -74l338 -163q125 -61 125 -150l-2 -207q0 -55 -40 -96 t-97 -41h-338q-55 0 -93 40t-38 97z" />
<glyph unicode="t" horiz-adv-x="737" d="M102 881v82h166v473h82v-473h244v-82h-244v-738q0 -61 62 -61h204l21 -82h-229q-63 0 -101.5 39t-38.5 94v748h-166z" />
<glyph unicode="u" horiz-adv-x="901" d="M143 135v828h82v-820q0 -61 62 -61h389v881h82v-961h-475q-63 0 -101.5 39t-38.5 94z" />
<glyph unicode="v" horiz-adv-x="983" d="M82 963h94l299 -844l301 844h94l-348 -963h-94z" />
<glyph unicode="w" horiz-adv-x="1495" d="M61 963h95l270 -844l244 758h106l238 -758l270 844h94l-317 -963h-94l-246 745l-248 -745h-94z" />
<glyph unicode="x" horiz-adv-x="862" d="M78 0l299 481l-299 482h96l254 -404l254 404h96l-299 -482l299 -481h-96l-254 403l-254 -403h-96z" />
<glyph unicode="y" horiz-adv-x="901" d="M164 133v830h82v-820q0 -61 61 -61h348v881h82v-1239q0 -55 -37.5 -94.5t-101.5 -39.5h-229l41 80h184q61 0 61 62v268h-352q-63 0 -101 39t-38 94z" />
<glyph unicode="z" horiz-adv-x="1038" d="M152 0v31l563 850h-563v82h696v-41l-561 -840h561v-82h-696z" />
<glyph unicode="{" horiz-adv-x="655" d="M102 557v76h91q39 0 68.5 38t29.5 77v481q0 31 23.5 60.5t68.5 29.5h145l13 -84h-127q-43 0 -43 -55v-424q0 -76 -82 -158q82 -47 82 -164v-461q0 -55 43 -55h127l-13 -80h-147q-45 0 -72 33q-20 27 -20 57v518q0 37 -30 74t-64 37h-93z" />
<glyph unicode="|" horiz-adv-x="415" d="M164 -164v1481h82v-1481h-82z" />
<glyph unicode="}" horiz-adv-x="655" d="M121 -82h127q43 0 43 55v461q0 117 82 164q-82 82 -82 158v424q0 55 -43 55h-127l12 84h146q45 0 71 -33q20 -27 21 -57v-481q0 -39 29.5 -77t68.5 -38h90v-76h-92q-35 0 -64.5 -37t-29.5 -74v-518q0 -31 -21 -57q-27 -33 -71 -33h-148z" />
<glyph unicode="~" horiz-adv-x="899" d="M162 1237h84q53 0 82 -27q16 -14 41 -59l69 -131q31 -57 74 -57h80q61 0 61 57v72h84v-72q0 -57 -36.5 -99t-84.5 -40h-114q-90 0 -150 125l-49 102q-25 49 -63 49h-76z" />
<glyph unicode="&#xa1;" horiz-adv-x="411" d="M133 1239q0 78 72 78t71 -78q0 -76 -71 -76q-72 0 -72 76zM164 -8v975h80v-975h-80z" />
<glyph unicode="&#xa2;" horiz-adv-x="819" d="M162 463l2 362q0 55 39 96.5t96 41.5h86v274h43v-274h96q55 0 93 -40t38 -98v-106h-82v102q0 61 -61 62h-205q-61 0 -61 -62v-350q0 -61 61 -61h266v-80h-145v-283h-43v283h-100q-53 0 -88 37t-35 96z" />
<glyph unicode="&#xa3;" horiz-adv-x="1107" d="M39 717v82h166v493q0 55 43 99.5t106 44.5h178q55 0 98.5 -46.5t43.5 -103.5v-96h-82v92q0 25 -23.5 48.5t-48.5 23.5h-162q-25 0 -48 -23.5t-23 -48.5v-483h243v-82h-243v-635h657v-82h-739v717h-166z" />
<glyph unicode="&#xa4;" horiz-adv-x="1003" d="M-10 489v82h174v164h-174v82h174v311q0 63 55 126t125 63h332q70 0 126 -62.5t56 -126.5v-81h-82v88q0 35 -32.5 69.5t-65.5 34.5h-332q-37 0 -67.5 -34t-30.5 -72v-316h317v-82h-317v-164h317v-82h-317v-301q0 -33 37 -69.5t67 -36.5h322q37 0 69.5 36t32.5 72v58h82 v-55q0 -68 -55 -128.5t-127 -60.5h-326q-74 0 -130 62.5t-56 130.5v292h-174z" />
<glyph unicode="&#xa5;" d="M164 207v80h287v104h-287v82h287v162h-113q-66 0 -120 65.5t-54 130.5v488h84v-477q0 -45 30.5 -85t69.5 -40h287q41 0 74 47q31 41 30 80v475h80v-488q0 -70 -49 -129q-53 -68 -127 -67h-108v-162h284v-82h-284v-104h284v-80h-284v-205h-84v205h-287z" />
<glyph unicode="&#xa7;" horiz-adv-x="899" d="M164 494v684q0 57 43 100t106 43h301l-41 -84h-256q-25 0 -48 -23.5t-23 -48.5v-202h352q63 0 101 -38t38 -96v-686q0 -57 -43 -100t-106 -43h-301l41 82h256q25 0 48 23.5t23 48.5v215h-383q-41 0 -71 30q-37 38 -37 95zM246 512q0 -61 61 -61h348v368q0 61 -61 62h-348 v-369z" />
<glyph unicode="&#xa8;" horiz-adv-x="780" d="M203 1239q0 29 20.5 50.5t50.5 21.5q29 0 50.5 -21.5t21.5 -50.5q0 -31 -21.5 -52.5t-50.5 -21.5q-31 0 -51 21.5t-20 52.5zM516 1239q0 29 20.5 50.5t51.5 21.5q29 0 50 -21.5t21 -50.5q0 -31 -21.5 -52.5t-49.5 -21.5q-31 0 -51.5 21.5t-20.5 52.5z" />
<glyph unicode="&#xa9;" horiz-adv-x="1245" d="M133 197v919q0 61 54.5 132t119.5 71h635q66 0 122 -67.5t56 -129.5v-925q0 -63 -56 -129t-118 -66h-641q-66 0 -119 66t-53 129zM195 203q0 -45 48 -97.5t91 -52.5h584q43 0 91 52.5t48 97.5v907q0 49 -48 102.5t-91 53.5h-584q-43 0 -91 -52.5t-48 -97.5v-913zM395 367 v581q0 39 37 78t84 39h219q47 0 84 -39t37 -78v-102h-55v106q0 20 -20.5 42t-43.5 22h-219q-25 0 -45 -20.5t-20 -45.5v-588q0 -23 23.5 -45t45.5 -22h211q25 0 46.5 22.5t21.5 44.5v89h55v-89q0 -41 -36 -78.5t-85 -37.5h-215q-49 0 -87 39t-38 82z" />
<glyph unicode="&#xaa;" horiz-adv-x="747" d="M119 670v254q0 49 40 86t85 37h317v204h-416l-2 68h402q86 0 86 -92v-674h-393q-47 0 -83 35t-36 82zM186 680q0 -20 18.5 -38.5t39.5 -18.5h317v356h-307q-27 0 -47.5 -21.5t-20.5 -46.5v-231z" />
<glyph unicode="&#xab;" d="M72 487q0 53 41 86l286 232l58 -57l-281 -226q-20 -14 -20 -35q0 -20 20 -36l281 -226l-58 -57l-280 227q-47 37 -47 92zM463 487q0 53 43 86l287 232l57 -57l-283 -226q-20 -14 -20 -35q0 -20 20 -36l283 -226l-57 -57l-283 227q-47 37 -47 92z" />
<glyph unicode="&#xac;" horiz-adv-x="1562" d="M145 676q0 238 167 403.5t403 165.5t402.5 -166t166.5 -403q0 -236 -167 -403t-402 -167q-236 0 -403 167t-167 403zM240 807l227 -225l-39 -320l285 148l291 -138l-52 318l219 233l-317 49l-154 283l-145 -287z" />
<glyph unicode="&#xad;" horiz-adv-x="690" d="M84 475v78h500v-78h-500z" />
<glyph unicode="&#xae;" horiz-adv-x="1245" d="M133 197v919q0 61 54.5 132t119.5 71h635q66 0 122 -67.5t56 -129.5v-925q0 -63 -56 -129t-118 -66h-641q-66 0 -119 66t-53 129zM195 203q0 -45 48 -97.5t91 -52.5h584q43 0 91 52.5t48 97.5v907q0 49 -48 102.5t-91 53.5h-584q-43 0 -91 -52.5t-48 -97.5v-913zM395 246 v821h346q47 0 79 -30.5t32 -73.5v-195q0 -45 -30.5 -71.5t-61.5 -26.5v-4q31 0 61.5 -22.5t30.5 -61.5v-256q0 -25 27 -78h-60q-25 49 -22 76v266q0 51 -82 51h-260l-2 -393zM455 694h274q16 0 42 18.5t26 37.5v217q0 45 -56 45h-286v-318z" />
<glyph unicode="&#xaf;" horiz-adv-x="1224" d="M61 586q0 240 161 408.5t388 168.5q225 0 386 -169t161 -408q0 -236 -160.5 -405t-386.5 -169q-227 0 -388 169t-161 405zM246 578q0 -170 106.5 -273.5t284.5 -103.5q78 0 156.5 42t115.5 105l-135 82q-57 -82 -158 -82q-90 0 -143 64.5t-53 165.5q0 104 54 168.5 t147 64.5q94 0 149 -63l119 77q-25 63 -109 101q-70 31 -143 30q-178 0 -284.5 -102t-106.5 -276z" />
<glyph unicode="&#x2c9;" horiz-adv-x="1224" d="M61 586q0 240 161 408.5t388 168.5q225 0 386 -169t161 -408q0 -236 -160.5 -405t-386.5 -169q-227 0 -388 169t-161 405zM246 578q0 -170 106.5 -273.5t284.5 -103.5q78 0 156.5 42t115.5 105l-135 82q-57 -82 -158 -82q-90 0 -143 64.5t-53 165.5q0 104 54 168.5 t147 64.5q94 0 149 -63l119 77q-25 63 -109 101q-70 31 -143 30q-178 0 -284.5 -102t-106.5 -276z" />
<glyph unicode="&#xb0;" horiz-adv-x="819" d="M168 1104q0 113 70.5 189.5t169.5 76.5q100 0 170.5 -76.5t70.5 -189.5q0 -111 -70.5 -187.5t-170.5 -76.5q-98 0 -169 76.5t-71 187.5zM229 1104q0 -78 52.5 -135.5t126.5 -57.5q76 0 128 57.5t52 135.5q0 80 -52.5 137t-127.5 57q-74 0 -126.5 -57t-52.5 -137z" />
<glyph unicode="&#xb1;" horiz-adv-x="573" d="M82 0v82h164v1155h-164v82h410v-82h-164v-1155h164v-82h-410z" />
<glyph unicode="&#xb2;" horiz-adv-x="897" d="M164 0v328q0 82 92 137l432 256q51 31 51 80v289q0 66 -53 65h-383q-55 0 -55 -59v-90h-84v84q0 55 44 101t101 46h365q55 0 100 -45t45 -102v-287q0 -96 -123 -170l-403 -242q-45 -27 -45 -74v-235h571v-82h-655z" />
<glyph unicode="&#xb3;" horiz-adv-x="946" d="M123 137v109h84v-113q0 -49 45 -49h401q45 0 45 47v434q0 47 -43 47h-342v84h342q43 0 43 49v365q0 47 -47 47h-395q-49 0 -49 -47v-90h-84v84q0 133 127 133h412q51 0 86 -45q31 -37 30 -70v-358q0 -82 -49 -105q49 -14 49 -104v-426q0 -43 -24 -82q-31 -47 -76 -47 h-428q-55 0 -91 40t-36 97z" />
<glyph unicode="&#xb4;" horiz-adv-x="571" d="M133 1102l197 334h94l-221 -334h-70z" />
<glyph unicode="&#xb5;" horiz-adv-x="1224" d="M20 586q0 240 161 408.5t388 168.5q225 0 386 -169t161 -408q0 -236 -160.5 -405t-386.5 -169q-227 0 -388 169t-161 405zM205 578q0 -170 106.5 -273.5t284.5 -103.5q78 0 156.5 42t115.5 105l-135 82q-57 -82 -158 -82q-90 0 -143 64.5t-53 165.5q0 104 54 168.5 t147 64.5q94 0 149 -63l119 77q-25 63 -109 101q-70 31 -143 30q-178 0 -284.5 -102t-106.5 -276z" />
<glyph unicode="&#x3bc;" horiz-adv-x="1224" d="M20 586q0 240 161 408.5t388 168.5q225 0 386 -169t161 -408q0 -236 -160.5 -405t-386.5 -169q-227 0 -388 169t-161 405zM205 578q0 -170 106.5 -273.5t284.5 -103.5q78 0 156.5 42t115.5 105l-135 82q-57 -82 -158 -82q-90 0 -143 64.5t-53 165.5q0 104 54 168.5 t147 64.5q94 0 149 -63l119 77q-25 63 -109 101q-70 31 -143 30q-178 0 -284.5 -102t-106.5 -276z" />
<glyph unicode="&#xb6;" horiz-adv-x="1067" d="M123 680v426q0 80 61.5 146.5t126.5 66.5h590v-1317h-82v469h-166v-469h-78v469h-258q-70 0 -132 65.5t-62 143.5zM203 684q0 -45 34.5 -88t75.5 -43h262v686h-266q-35 0 -70.5 -42t-35.5 -87v-426zM653 553h166v686h-166v-686z" />
<glyph unicode="&#xb7;" horiz-adv-x="407" d="M123 496q0 29 21.5 50t50.5 21q31 0 52 -21.5t21 -49.5q0 -31 -21.5 -51.5t-51.5 -20.5q-29 0 -50.5 20.5t-21.5 51.5z" />
<glyph unicode="&#x2219;" horiz-adv-x="407" d="M123 496q0 29 21.5 50t50.5 21q31 0 52 -21.5t21 -49.5q0 -31 -21.5 -51.5t-51.5 -20.5q-29 0 -50.5 20.5t-21.5 51.5z" />
<glyph unicode="&#xb8;" horiz-adv-x="1052" d="M381 -123l106 174l54 -8l-86 -145h75q53 0 103 -25q59 -31 59 -82q0 -104 -217 -133l-8 55q154 27 154 68q0 61 -101 61h-119z" />
<glyph unicode="&#xb9;" horiz-adv-x="491" d="M113 1036v47q63 0 110 45.5t47 108.5h58v-1237h-80v1036h-135z" />
<glyph unicode="&#xba;" horiz-adv-x="774" d="M117 1198q0 49 35.5 85t85.5 36h303q47 0 80.5 -36t33.5 -85v-514q0 -55 -30.5 -93t-73.5 -38h-326q-45 0 -75.5 32.5t-30.5 86.5zM193 678q0 -53 53 -53h284q53 0 54 53v516q0 55 -54 55h-284q-53 0 -53 -55v-516z" />
<glyph unicode="&#xbb;" d="M102 225l283 226q20 16 21 36q0 20 -21 35l-283 226l58 57l286 -232q43 -33 43 -86q0 -55 -47 -92l-282 -227zM496 225l282 226q18 16 19 36q0 20 -19 35l-282 226l57 57l287 -232q41 -33 41 -86q0 -55 -45 -92l-283 -227z" />
<glyph unicode="&#xbc;" horiz-adv-x="3194" d="M2239 367v73l596 807h61v-798h146v-82h-146v-367h-84v367h-573zM2341 449h471v628zM572 1051q0 307 217 471q199 150 428 149q233 0 494 -155q233 -139 233 -429q0 -162 -86 -409q-68 -199 -512 -842l-223 -2q-127 217 -223 385q-229 403 -267 504q-61 166 -61 328z M648 1049q0 -154 63 -330q49 -135 447 -807l155 2q117 170 205 309q213 334 254 455q94 268 94 405q0 238 -196 357q-238 141 -451 141q-209 0 -390 -138t-181 -394zM768 991q0 72 42 127.5t112 55.5q63 0 127 -56q109 -94 150 -287q16 -72 28 -266q-43 43 -239 162 q-174 104 -199 162q-21 51 -21 102zM1088 291q0 39 45 39h236q45 0 45 -39t-45 -39h-236q-45 0 -45 39zM1301 565q14 195 29 266q41 193 151 287q61 55 127 56q68 0 111 -55.5t43 -127.5q0 -51 -23 -102q-25 -57 -196 -162q-199 -119 -242 -162zM113 1036v47q63 0 110 45.5 t47 108.5h58v-1237h-80v1036h-135z" />
<glyph unicode="&#xbd;" horiz-adv-x="3053" d="M2321 0v328q0 82 92 137l432 256q51 31 51 80v289q0 66 -53 65h-383q-55 0 -55 -59v-90h-84v84q0 55 44 101t101 46h365q55 0 100 -45t45 -102v-287q0 -96 -123 -170l-403 -242q-45 -27 -45 -74v-235h571v-82h-655zM572 1051q0 307 217 471q199 150 428 149 q233 0 494 -155q233 -139 233 -429q0 -162 -86 -409q-68 -199 -512 -842l-223 -2q-127 217 -223 385q-229 403 -267 504q-61 166 -61 328zM648 1049q0 -154 63 -330q49 -135 447 -807l155 2q117 170 205 309q213 334 254 455q94 268 94 405q0 238 -196 357 q-238 141 -451 141q-209 0 -390 -138t-181 -394zM768 991q0 72 42 127.5t112 55.5q63 0 127 -56q109 -94 150 -287q16 -72 28 -266q-43 43 -239 162q-174 104 -199 162q-21 51 -21 102zM1088 291q0 39 45 39h236q45 0 45 -39t-45 -39h-236q-45 0 -45 39zM1301 565 q14 195 29 266q41 193 151 287q61 55 127 56q68 0 111 -55.5t43 -127.5q0 -51 -23 -102q-25 -57 -196 -162q-199 -119 -242 -162zM113 1036v47q63 0 110 45.5t47 108.5h58v-1237h-80v1036h-135z" />
<glyph unicode="&#xbe;" horiz-adv-x="3649" d="M2693 367v73l596 807h61v-798h146v-82h-146v-367h-84v367h-573zM2795 449h471v628zM1026 1051q0 307 217 471q199 150 428 149q233 0 494 -155q233 -139 233 -429q0 -162 -86 -409q-68 -199 -512 -842l-223 -2q-127 217 -223 385q-229 403 -267 504q-61 166 -61 328z M1102 1049q0 -154 63 -330q49 -135 447 -807l155 2q117 170 205 309q213 334 254 455q94 268 94 405q0 238 -196 357q-238 141 -451 141q-209 0 -390 -138t-181 -394zM1222 991q0 72 42 127.5t112 55.5q63 0 127 -56q109 -94 150 -287q16 -72 28 -266q-43 43 -239 162 q-174 104 -199 162q-21 51 -21 102zM1542 291q0 39 45 39h236q45 0 45 -39t-45 -39h-236q-45 0 -45 39zM1755 565q14 195 29 266q41 193 151 287q61 55 127 56q68 0 111 -55.5t43 -127.5q0 -51 -23 -102q-25 -57 -196 -162q-199 -119 -242 -162zM123 137v109h84v-113 q0 -49 45 -49h401q45 0 45 47v434q0 47 -43 47h-342v84h342q43 0 43 49v365q0 47 -47 47h-395q-49 0 -49 -47v-90h-84v84q0 133 127 133h412q51 0 86 -45q31 -37 30 -70v-358q0 -82 -49 -105q49 -14 49 -104v-426q0 -43 -24 -82q-31 -47 -76 -47h-428q-55 0 -91 40t-36 97z " />
<glyph unicode="&#xbf;" horiz-adv-x="872" d="M145 117v418q0 55 36 96t77 41h229q61 0 62 63v217h78v-231q0 -57 -32 -94t-79 -37h-225q-63 0 -64 -72v-379q0 -70 66 -69h395l-20 -82h-416q-41 0 -74 35t-33 94zM512 1225q0 78 72 78q70 0 69 -78q0 -78 -69 -78q-72 0 -72 78z" />
<glyph unicode="&#xc0;" horiz-adv-x="1069" d="M68 0l411 1319h43l412 -1319h-82l-113 356h-477l-112 -356h-82zM289 440h424l-213 672zM344 1702h96l195 -334h-70z" />
<glyph unicode="&#xc1;" horiz-adv-x="1067" d="M68 0l411 1319h43l412 -1319h-82l-113 356h-477l-112 -356h-82zM289 440h424l-213 672zM412 1344l197 334h94l-221 -334h-70z" />
<glyph unicode="&#xc2;" horiz-adv-x="1067" d="M68 0l411 1319h43l412 -1319h-82l-113 356h-477l-112 -356h-82zM289 440h424l-213 672zM226 1397l196 195q39 39 90 38q57 0 101 -43l192 -190l-59 -47l-186 182q-18 18 -45 19q-25 0 -43 -19l-189 -182z" />
<glyph unicode="&#xc3;" horiz-adv-x="1069" d="M68 0l411 1319h43l412 -1319h-82l-113 356h-477l-112 -356h-82zM289 440h424l-213 672zM248 1684l80 2q53 0 82 -23q16 -12 41 -51l69 -111q31 -49 76 -49h86q61 0 61 49v60h78v-60q0 -47 -36.5 -82.5t-86.5 -35.5l-112 2q-90 0 -150 104l-49 86q-23 41 -61 41h-76z" />
<glyph unicode="&#xc4;" horiz-adv-x="1069" d="M275 1513q0 29 20.5 50.5t50.5 21.5q29 0 50.5 -21.5t21.5 -50.5q0 -31 -21.5 -52.5t-50.5 -21.5q-31 0 -51 21.5t-20 52.5zM588 1513q0 29 20.5 50.5t51.5 21.5q29 0 50 -21.5t21 -50.5q0 -31 -21.5 -52.5t-49.5 -21.5q-31 0 -51.5 21.5t-20.5 52.5zM68 0l411 1319h43 l412 -1319h-82l-113 356h-477l-112 -356h-82zM289 440h424l-213 672z" />
<glyph unicode="&#xc5;" horiz-adv-x="1064" d="M102 0l361 1155q-49 4 -80 41t-31 92l2 84q0 57 40 97t95 40h103q55 0 93 -39.5t38 -97.5v-67q0 -61 -34 -104.5t-81 -45.5l361 -1155h-82l-113 356h-477l-113 -356h-82zM324 440h424l-213 672zM436 1296q0 -61 62 -61h82q61 0 61 61v72q0 61 -61 62h-82q-61 0 -62 -62 v-72z" />
<glyph unicode="&#xc6;" horiz-adv-x="1482" d="M164 0v1124q0 61 55 128t123 67h997v-82h-598q20 -8 35 -48t15 -69v-401h499v-84h-499v-553h548v-80l-624 -2v492h-467v-492h-84zM248 567h467v551q0 35 -23.5 77t-48.5 42h-299q-39 0 -67.5 -41t-28.5 -72v-557z" />
<glyph unicode="&#xc7;" horiz-adv-x="1030" d="M164 197v931q0 63 55 126t125 63h375q70 0 126 -62.5t56 -126.5v-163h-82v170q0 35 -32.5 69.5t-65.5 34.5h-375q-37 0 -67.5 -34t-30.5 -72v-945q0 -33 37 -69.5t67 -36.5h365q37 0 69.5 36t32.5 72v140h82v-137q0 -68 -55 -128.5t-127 -60.5h-160l-63 -106h75 q53 0 103 -25q59 -31 59 -82q0 -104 -217 -133l-8 55q154 27 154 68q0 61 -101 61h-119l-20 35l78 127h-150q-74 0 -130 62.5t-56 130.5z" />
<glyph unicode="&#xc8;" horiz-adv-x="948" d="M164 2v1317h624v-82h-540v-518h491v-84h-491v-553h571v-80h-655zM307 1747h96l195 -334h-70z" />
<glyph unicode="&#xc9;" horiz-adv-x="950" d="M164 2v1317h624v-82h-540v-518h491v-84h-491v-553h571v-80h-655zM342 1389l197 334h94l-221 -334h-70z" />
<glyph unicode="&#xca;" horiz-adv-x="937" d="M164 2v1317h624v-82h-540v-518h491v-84h-491v-553h571v-80h-655zM189 1456l196 195q39 39 90 38q57 0 101 -43l192 -190l-59 -47l-186 182q-18 18 -45 19q-25 0 -43 -19l-189 -182z" />
<glyph unicode="&#xcb;" horiz-adv-x="954" d="M164 2v1317h624v-82h-540v-518h491v-84h-491v-553h571v-80h-655zM242 1522q0 29 20.5 50.5t50.5 21.5q29 0 50.5 -21.5t21.5 -50.5q0 -31 -21.5 -52.5t-50.5 -21.5q-31 0 -51 21.5t-20 52.5zM555 1522q0 29 20.5 50.5t51.5 21.5q29 0 50 -21.5t21 -50.5 q0 -31 -21.5 -52.5t-49.5 -21.5q-31 0 -51.5 21.5t-20.5 52.5z" />
<glyph unicode="&#xcc;" horiz-adv-x="409" d="M184 2v1317h84v-1317h-84zM27 1692h96l195 -334h-70z" />
<glyph unicode="&#xcd;" horiz-adv-x="454" d="M184 2v1317h84v-1317h-84zM117 1374l197 334h94l-221 -334h-70z" />
<glyph unicode="&#xce;" horiz-adv-x="573" d="M266 2v1317h84v-1317h-84zM-4 1397l196 195q39 39 90 38q57 0 101 -43l192 -190l-59 -47l-186 182q-18 18 -45 19q-25 0 -43 -19l-189 -182z" />
<glyph unicode="&#xcf;" horiz-adv-x="491" d="M209 2v1317h84v-1317h-84zM17 1522q0 29 20.5 50.5t50.5 21.5q29 0 50.5 -21.5t21.5 -50.5q0 -31 -21.5 -52.5t-50.5 -21.5q-31 0 -51 21.5t-20 52.5zM330 1522q0 29 20.5 50.5t51.5 21.5q29 0 50 -21.5t21 -50.5q0 -31 -21.5 -52.5t-49.5 -21.5q-31 0 -51.5 21.5 t-20.5 52.5z" />
<glyph unicode="&#xd1;" horiz-adv-x="1052" d="M131 1319h86l580 -1063l39 -43l-17 41v1065h82v-1319h-59l-594 1038v-1036h-84v1237zM250 1618l80 2q53 0 82 -23q16 -12 41 -51l69 -111q31 -49 76 -49h86q61 0 61 49v60h78v-60q0 -47 -36.5 -82.5t-86.5 -35.5l-112 2q-90 0 -150 104l-49 86q-23 41 -61 41h-76z" />
<glyph unicode="&#xd2;" horiz-adv-x="1067" d="M154 217v879q0 80 55 147q59 76 141 76h383q84 0 141.5 -67.5t57.5 -149.5v-885q0 -80 -55 -145q-57 -72 -139 -72h-390q-80 0 -139 72q-55 65 -55 145zM238 225q0 -51 41 -97t92 -46h354q47 0 87 46t40 97v862q0 59 -39 104.5t-88 45.5h-354q-53 0 -93 -45t-40 -98v-869 zM348 1688h96l195 -334h-70z" />
<glyph unicode="&#xd3;" horiz-adv-x="1056" d="M146 217v879q0 80 55 147q59 76 141 76h383q84 0 141.5 -67.5t57.5 -149.5v-885q0 -80 -55 -145q-57 -72 -139 -72h-390q-80 0 -139 72q-55 65 -55 145zM230 225q0 -51 41 -97t92 -46h354q47 0 87 46t40 97v862q0 59 -39 104.5t-88 45.5h-354q-53 0 -93 -45t-40 -98v-869 zM375 1368l197 334h94l-221 -334h-70z" />
<glyph unicode="&#xd4;" horiz-adv-x="1058" d="M154 217v879q0 80 55 147q59 76 141 76h383q84 0 141.5 -67.5t57.5 -149.5v-885q0 -80 -55 -145q-57 -72 -139 -72h-390q-80 0 -139 72q-55 65 -55 145zM238 225q0 -51 41 -97t92 -46h354q47 0 87 46t40 97v862q0 59 -39 104.5t-88 45.5h-354q-53 0 -93 -45t-40 -98v-869 zM252 1448l196 195q39 39 90 38q57 0 101 -43l192 -190l-59 -47l-186 182q-18 18 -45 19q-25 0 -43 -19l-189 -182z" />
<glyph unicode="&#xd5;" horiz-adv-x="1069" d="M152 217v879q0 80 55 147q59 76 141 76h383q84 0 141.5 -67.5t57.5 -149.5v-885q0 -80 -55 -145q-57 -72 -139 -72h-390q-80 0 -139 72q-55 65 -55 145zM236 225q0 -51 41 -97t92 -46h354q47 0 87 46t40 97v862q0 59 -39 104.5t-88 45.5h-354q-53 0 -93 -45t-40 -98v-869 zM236 1680l80 2q53 0 82 -23q16 -12 41 -51l69 -111q31 -49 76 -49h86q61 0 61 49v60h78v-60q0 -47 -36.5 -82.5t-86.5 -35.5l-112 2q-90 0 -150 104l-49 86q-23 41 -61 41h-76z" />
<glyph unicode="&#xd6;" horiz-adv-x="1056" d="M154 217v879q0 80 55 147q59 76 141 76h383q84 0 141.5 -67.5t57.5 -149.5v-885q0 -80 -55 -145q-57 -72 -139 -72h-390q-80 0 -139 72q-55 65 -55 145zM238 225q0 -51 41 -97t92 -46h354q47 0 87 46t40 97v862q0 59 -39 104.5t-88 45.5h-354q-53 0 -93 -45t-40 -98v-869 zM314 1518q0 29 20.5 50.5t50.5 21.5q29 0 50.5 -21.5t21.5 -50.5q0 -31 -21.5 -52.5t-50.5 -21.5q-31 0 -51 21.5t-20 52.5zM627 1518q0 29 20.5 50.5t51.5 21.5q29 0 50 -21.5t21 -50.5q0 -31 -21.5 -52.5t-49.5 -21.5q-31 0 -51.5 21.5t-20.5 52.5z" />
<glyph unicode="&#xd8;" horiz-adv-x="1120" d="M158 197v919q0 61 54 132t120 71h416l71 188h82l-78 -207q47 -27 82 -80t35 -98v-925q0 -63 -56.5 -129t-119.5 -66h-434l-62 -160h-82l70 185q-43 29 -70.5 78t-27.5 92zM240 205q0 -49 49 -92l428 1124h-355q-43 0 -82.5 -40t-39.5 -83v-909zM358 82h4h369q43 0 83 40 t40 83v903q0 63 -63 109z" />
<glyph unicode="&#xd9;" d="M164 199v1120h84v-1112q0 -47 30.5 -86t69.5 -39h369q41 0 71.5 43t30.5 84v1110h82v-1120q0 -70 -49 -129q-53 -68 -127 -68h-387q-66 0 -120 65.5t-54 131.5zM362 1682h96l195 -334h-70z" />
<glyph unicode="&#xda;" horiz-adv-x="976" d="M164 199v1120h84v-1112q0 -47 30.5 -86t69.5 -39h369q41 0 71.5 43t30.5 84v1110h82v-1120q0 -70 -49 -129q-53 -68 -127 -68h-387q-66 0 -120 65.5t-54 131.5zM360 1364l197 334h94l-221 -334h-70z" />
<glyph unicode="&#xdb;" d="M164 199v1120h84v-1112q0 -47 30.5 -86t69.5 -39h369q41 0 71.5 43t30.5 84v1110h82v-1120q0 -70 -49 -129q-53 -68 -127 -68h-387q-66 0 -120 65.5t-54 131.5zM248 1473l196 195q39 39 90 38q57 0 101 -43l192 -190l-59 -47l-186 182q-18 18 -45 19q-25 0 -43 -19 l-189 -182z" />
<glyph unicode="&#xdc;" horiz-adv-x="1001" d="M164 199v1120h84v-1112q0 -47 30.5 -86t69.5 -39h369q41 0 71.5 43t30.5 84v1110h82v-1120q0 -70 -49 -129q-53 -68 -127 -68h-387q-66 0 -120 65.5t-54 131.5zM307 1509q0 29 20.5 50.5t50.5 21.5q29 0 50.5 -21.5t21.5 -50.5q0 -31 -21.5 -52.5t-50.5 -21.5 q-31 0 -51 21.5t-20 52.5zM620 1509q0 29 20.5 50.5t51.5 21.5q29 0 50 -21.5t21 -50.5q0 -31 -21.5 -52.5t-49.5 -21.5q-31 0 -51.5 21.5t-20.5 52.5z" />
<glyph unicode="&#xdd;" d="M481 1442l197 334h94l-221 -334h-70zM164 750v569h82v-561q0 -45 31.5 -85t70.5 -40h287q39 0 72 47q31 41 30 80v559h82v-569q0 -70 -49 -129q-53 -68 -125 -68h-110v-551h-84v551h-111q-68 0 -122 65.5t-54 131.5z" />
<glyph unicode="&#xdf;" d="M-43 -287l41 80h102q61 0 62 62l2 1280q0 74 54 129t118 55h219q72 0 128 -55.5t56 -124.5v-217q0 -72 -51 -121q-41 -41 -86 -41v-4q45 0 86 -35q51 -41 51 -105v-387q0 -92 -100 -168q-74 -57 -143 -71l-25 76q88 39 113 55q72 49 71 106v404q0 33 -33.5 59.5 t-84.5 26.5h-289v-871q0 -55 -40 -94t-104 -39h-147zM248 801h311q20 0 58 28.5t38 59.5v254q0 37 -29.5 66.5t-68.5 29.5h-217q-92 0 -92 -96v-342z" />
<glyph unicode="&#xe0;" horiz-adv-x="983" d="M164 137v350q0 59 51 105q45 43 98 43h383v203q0 43 -41 43h-409v82h430q102 0 102 -111v-852h-471q-55 0 -99 41t-44 96zM246 152q0 -25 22.5 -47.5t46.5 -22.5h381v471h-370q-31 0 -55.5 -25.5t-24.5 -56.5v-319zM321 1434h96l195 -334h-70z" />
<glyph unicode="&#xe1;" horiz-adv-x="989" d="M164 137v350q0 59 51 105q45 43 98 43h383v203q0 43 -41 43h-409v82h430q102 0 102 -111v-852h-471q-55 0 -99 41t-44 96zM246 152q0 -25 22.5 -47.5t46.5 -22.5h381v471h-370q-31 0 -55.5 -25.5t-24.5 -56.5v-319zM336 1100l197 334h94l-221 -334h-70z" />
<glyph unicode="&#xe2;" horiz-adv-x="989" d="M164 137v350q0 59 51 105q45 43 98 43h383v203q0 43 -41 43h-409v82h430q102 0 102 -111v-852h-471q-55 0 -99 41t-44 96zM246 152q0 -25 22.5 -47.5t46.5 -22.5h381v471h-370q-31 0 -55.5 -25.5t-24.5 -56.5v-319zM215 1157l196 195q39 39 90 38q57 0 101 -43l192 -190 l-59 -47l-186 182q-18 18 -45 19q-25 0 -43 -19l-189 -182z" />
<glyph unicode="&#xe3;" d="M164 137v350q0 59 51 105q45 43 98 43h383v203q0 43 -41 43h-409v82h430q102 0 102 -111v-852h-471q-55 0 -99 41t-44 96zM246 152q0 -25 22.5 -47.5t46.5 -22.5h381v471h-370q-31 0 -55.5 -25.5t-24.5 -56.5v-319zM205 1387l80 2q53 0 82 -23q16 -12 41 -51l69 -111 q31 -49 76 -49h86q61 0 61 49v60h78v-60q0 -47 -36.5 -82.5t-86.5 -35.5l-112 2q-90 0 -150 104l-49 86q-23 41 -61 41h-76z" />
<glyph unicode="&#xe4;" horiz-adv-x="989" d="M164 137v350q0 59 51 105q45 43 98 43h383v203q0 43 -41 43h-409v82h430q102 0 102 -111v-852h-471q-55 0 -99 41t-44 96zM246 152q0 -25 22.5 -47.5t46.5 -22.5h381v471h-370q-31 0 -55.5 -25.5t-24.5 -56.5v-319zM275 1219q0 29 20.5 50.5t50.5 21.5q29 0 50.5 -21.5 t21.5 -50.5q0 -31 -21.5 -52.5t-50.5 -21.5q-31 0 -51 21.5t-20 52.5zM588 1219q0 29 20.5 50.5t51.5 21.5q29 0 50 -21.5t21 -50.5q0 -31 -21.5 -52.5t-49.5 -21.5q-31 0 -51.5 21.5t-20.5 52.5z" />
<glyph unicode="&#xe5;" horiz-adv-x="997" d="M164 137v350q0 59 51 105q45 43 98 43h383v203q0 43 -41 43h-409v82h430q102 0 102 -111v-852h-471q-55 0 -99 41t-44 96zM246 152q0 -25 22.5 -47.5t46.5 -22.5h381v471h-370q-31 0 -55.5 -25.5t-24.5 -56.5v-319zM325 1210l3 84q0 57 39.5 97.5t95.5 40.5h102 q55 0 93 -40t38 -98v-67q0 -63 -34.5 -106.5t-86.5 -43.5h-127q-53 0 -88 37t-35 96zM409 1219q0 -61 62 -62h82q61 0 61 62v71q0 61 -61 62h-82q-61 0 -62 -62v-71z" />
<glyph unicode="&#xe6;" horiz-adv-x="1443" d="M164 137v350q0 59 51 105q45 43 98 43h383v246h-499l-2 82h481q53 0 80 -35q43 35 98 35h317q55 0 99.5 -41t44.5 -97v-399h-533v-274q0 -31 21.5 -50.5t48.5 -19.5h381l2 -82h-928q-55 0 -99 41t-44 96zM246 152q0 -25 22.5 -47.5t46.5 -22.5h381v473h-370 q-31 0 -55.5 -25.5t-24.5 -56.5v-321zM778 510h451v301q0 25 -22.5 47.5t-47.5 22.5h-307q-74 0 -74 -70v-301z" />
<glyph unicode="&#xe7;" d="M162 135l2 690q0 55 39 96.5t96 41.5h389q55 0 93 -41t38 -99v-106h-82v102q0 61 -61 62h-369q-61 0 -61 -62v-676q0 -61 61 -61h430v-80h-221l-61 -104h75q53 0 103 -25q59 -31 59 -82q0 -104 -217 -133l-8 55q154 27 154 68q0 61 -101 61h-119l-20 35l76 125h-172 q-53 0 -88 37t-35 96z" />
<glyph unicode="&#xe8;" horiz-adv-x="983" d="M164 145v666q0 63 45 107.5t108 44.5h318q55 0 99 -41t44 -97v-399h-532v-274q0 -31 21.5 -50.5t47.5 -19.5h381l2 -82h-381q-59 0 -106 45t-47 100zM246 510h450v301q0 25 -22.5 47.5t-46.5 22.5h-308q-74 0 -73 -70v-301zM332 1436h96l195 -334h-70z" />
<glyph unicode="&#xe9;" horiz-adv-x="983" d="M164 145v666q0 63 45 107.5t108 44.5h318q55 0 99 -41t44 -97v-399h-532v-274q0 -31 21.5 -50.5t47.5 -19.5h381l2 -82h-381q-59 0 -106 45t-47 100zM246 510h450v301q0 25 -22.5 47.5t-46.5 22.5h-308q-74 0 -73 -70v-301zM346 1100l197 334h94l-221 -334h-70z" />
<glyph unicode="&#xea;" d="M164 145v666q0 63 45 107.5t108 44.5h318q55 0 99 -41t44 -97v-399h-532v-274q0 -31 21.5 -50.5t47.5 -19.5h381l2 -82h-381q-59 0 -106 45t-47 100zM246 510h450v301q0 25 -22.5 47.5t-46.5 22.5h-308q-74 0 -73 -70v-301zM183 1147l196 195q39 39 90 38q57 0 101 -43 l192 -190l-59 -47l-186 182q-18 18 -45 19q-25 0 -43 -19l-189 -182z" />
<glyph unicode="&#xeb;" horiz-adv-x="989" d="M164 145v666q0 63 45 107.5t108 44.5h318q55 0 99 -41t44 -97v-399h-532v-274q0 -31 21.5 -50.5t47.5 -19.5h381l2 -82h-381q-59 0 -106 45t-47 100zM246 510h450v301q0 25 -22.5 47.5t-46.5 22.5h-308q-74 0 -73 -70v-301zM250 1233q0 29 20.5 50.5t50.5 21.5 q29 0 50.5 -21.5t21.5 -50.5q0 -31 -21.5 -52.5t-50.5 -21.5q-31 0 -51 21.5t-20 52.5zM563 1233q0 29 20.5 50.5t51.5 21.5q29 0 50 -21.5t21 -50.5q0 -31 -21.5 -52.5t-49.5 -21.5q-31 0 -51.5 21.5t-20.5 52.5z" />
<glyph unicode="&#xec;" horiz-adv-x="407" d="M164 0v963h82v-963h-82zM43 1434h96l195 -334h-70z" />
<glyph unicode="&#xed;" horiz-adv-x="407" d="M164 0v963h82v-963h-82zM100 1100l197 334h94l-221 -334h-70z" />
<glyph unicode="&#xee;" horiz-adv-x="573" d="M244 0v963h82v-963h-82zM-4 1159l196 195q39 39 90 38q57 0 101 -43l192 -190l-59 -47l-186 182q-18 18 -45 19q-25 0 -43 -19l-189 -182z" />
<glyph unicode="&#xef;" horiz-adv-x="573" d="M244 0v963h82v-963h-82zM58 1235q0 29 20.5 50.5t50.5 21.5q29 0 50.5 -21.5t21.5 -50.5q0 -31 -21.5 -52.5t-50.5 -21.5q-31 0 -51 21.5t-20 52.5zM371 1235q0 29 20.5 50.5t51.5 21.5q29 0 50 -21.5t21 -50.5q0 -31 -21.5 -52.5t-49.5 -21.5q-31 0 -51.5 21.5 t-20.5 52.5z" />
<glyph unicode="&#xf1;" horiz-adv-x="899" d="M164 0v963h434q63 0 101 -39t38 -95v-829h-82v821q0 61 -61 62h-348v-883h-82zM164 1393l80 2q53 0 82 -23q16 -12 41 -51l69 -111q31 -49 76 -49h86q61 0 61 49v60h78v-60q0 -47 -36.5 -82.5t-86.5 -35.5l-112 2q-90 0 -150 104l-49 86q-23 41 -61 41h-76z" />
<glyph unicode="&#xf2;" horiz-adv-x="903" d="M141 135l2 690q0 55 40 96.5t96 41.5h348q55 0 93 -40t38 -98v-673q0 -63 -35 -107.5t-86 -44.5h-373q-53 0 -88 38t-35 97zM225 143q0 -61 62 -61h327q61 0 62 61v678q0 59 -62 60h-327q-61 0 -62 -60v-678zM266 1434h96l195 -334h-70z" />
<glyph unicode="&#xf3;" horiz-adv-x="903" d="M141 135l2 690q0 55 40 96.5t96 41.5h348q55 0 93 -40t38 -98v-673q0 -63 -35 -107.5t-86 -44.5h-373q-53 0 -88 38t-35 97zM225 143q0 -61 62 -61h327q61 0 62 61v678q0 59 -62 60h-327q-61 0 -62 -60v-678zM311 1102l197 334h94l-221 -334h-70z" />
<glyph unicode="&#xf4;" horiz-adv-x="903" d="M141 135l2 690q0 55 40 96.5t96 41.5h348q55 0 93 -40t38 -98v-673q0 -63 -35 -107.5t-86 -44.5h-373q-53 0 -88 38t-35 97zM225 143q0 -61 62 -61h327q61 0 62 61v678q0 59 -62 60h-327q-61 0 -62 -60v-678zM166 1153l196 195q39 39 90 38q57 0 101 -43l192 -190 l-59 -47l-186 182q-18 18 -45 19q-25 0 -43 -19l-189 -182z" />
<glyph unicode="&#xf5;" horiz-adv-x="903" d="M141 135l2 690q0 55 40 96.5t96 41.5h348q55 0 93 -40t38 -98v-673q0 -63 -35 -107.5t-86 -44.5h-373q-53 0 -88 38t-35 97zM225 143q0 -61 62 -61h327q61 0 62 61v678q0 59 -62 60h-327q-61 0 -62 -60v-678zM162 1387l80 2q53 0 82 -23q16 -12 41 -51l69 -111 q31 -49 76 -49h86q61 0 61 49v60h78v-60q0 -47 -36.5 -82.5t-86.5 -35.5l-112 2q-90 0 -150 104l-49 86q-23 41 -61 41h-76z" />
<glyph unicode="&#xf6;" horiz-adv-x="903" d="M141 135l2 690q0 55 40 96.5t96 41.5h348q55 0 93 -40t38 -98v-673q0 -63 -35 -107.5t-86 -44.5h-373q-53 0 -88 38t-35 97zM225 143q0 -61 62 -61h327q61 0 62 61v678q0 59 -62 60h-327q-61 0 -62 -60v-678zM223 1233q0 29 20.5 50.5t50.5 21.5q29 0 50.5 -21.5 t21.5 -50.5q0 -31 -21.5 -52.5t-50.5 -21.5q-31 0 -51 21.5t-20 52.5zM536 1233q0 29 20.5 50.5t51.5 21.5q29 0 50 -21.5t21 -50.5q0 -31 -21.5 -52.5t-49.5 -21.5q-31 0 -51.5 21.5t-20.5 52.5z" />
<glyph unicode="&#xf7;" horiz-adv-x="819" d="M82 451v81h657v-81h-657zM338 172q0 31 20.5 51.5t51.5 20.5q29 0 50 -20.5t21 -51.5t-21.5 -51.5t-49.5 -20.5q-31 0 -51.5 20.5t-20.5 51.5zM338 807q0 31 20.5 51.5t51.5 20.5q29 0 50 -20.5t21 -51.5t-21.5 -51.5t-49.5 -20.5q-31 0 -51.5 20.5t-20.5 51.5z" />
<glyph unicode="&#xf8;" horiz-adv-x="903" d="M109 -291l116 299q-84 27 -84 127l2 690q0 55 40 96.5t96 41.5h311l117 305h81l-118 -312q88 -33 88 -131v-673q0 -63 -35 -106.5t-86 -43.5h-334l-113 -293h-81zM225 143q0 -35 31 -53l303 793h-272q-61 0 -62 -62v-678zM334 82h280q61 0 62 61v678q0 41 -37 56z" />
<glyph unicode="&#xf9;" horiz-adv-x="899" d="M141 135v828h82v-820q0 -61 62 -61h389v881h82v-961h-475q-63 0 -101.5 39t-38.5 94zM280 1434h96l195 -334h-70z" />
<glyph unicode="&#xfa;" horiz-adv-x="899" d="M143 135v828h82v-820q0 -61 62 -61h389v881h82v-961h-475q-63 0 -101.5 39t-38.5 94zM317 1102l197 334h94l-221 -334h-70z" />
<glyph unicode="&#xfb;" horiz-adv-x="899" d="M141 135v828h82v-820q0 -61 62 -61h389v881h82v-961h-475q-63 0 -101.5 39t-38.5 94zM162 1143l196 195q39 39 90 38q57 0 101 -43l192 -190l-59 -47l-186 182q-18 18 -45 19q-25 0 -43 -19l-189 -182z" />
<glyph unicode="&#xfc;" horiz-adv-x="899" d="M141 135v828h82v-820q0 -61 62 -61h389v881h82v-961h-475q-63 0 -101.5 39t-38.5 94zM223 1239q0 29 20.5 50.5t50.5 21.5q29 0 50.5 -21.5t21.5 -50.5q0 -31 -21.5 -52.5t-50.5 -21.5q-31 0 -51 21.5t-20 52.5zM536 1239q0 29 20.5 50.5t51.5 21.5q29 0 50 -21.5 t21 -50.5q0 -31 -21.5 -52.5t-49.5 -21.5q-31 0 -51.5 21.5t-20.5 52.5z" />
<glyph unicode="&#xfd;" horiz-adv-x="901" d="M440 1086l197 334h94l-221 -334h-70zM164 133v830h82v-820q0 -61 61 -61h348v881h82v-1239q0 -55 -37.5 -94.5t-101.5 -39.5h-229l41 80h184q61 0 61 62v268h-352q-63 0 -101 39t-38 94z" />
<glyph unicode="&#xff;" horiz-adv-x="1562" d="M31 676q0 285 200.5 484.5t483.5 199.5t483.5 -199.5t200.5 -484.5q0 -283 -201 -482.5t-483 -199.5q-283 0 -483.5 199.5t-200.5 482.5zM145 676q0 -236 167 -403t403 -167t402.5 167t166.5 403q0 238 -167 403.5t-402 165.5q-236 0 -403 -165.5t-167 -403.5zM240 807 l315 61l145 287l154 -283l317 -49l-219 -233l52 -318l-291 138l-285 -148l39 320z" />
<glyph unicode="&#x131;" horiz-adv-x="407" d="M164 0v963h82v-963h-82z" />
<glyph unicode="&#x152;" horiz-adv-x="1607" d="M154 197v919q0 61 54 132t120 71h1104v-82h-574v-2q45 -59 45 -113v-403h479v-84h-479v-438q0 -55 -45 -115h574v-80h-1106q-66 0 -119 66t-53 129zM236 205q0 -43 39.5 -83t82.5 -40h336q43 0 83 40t40 83v903q0 47 -40 88t-83 41h-336q-43 0 -82.5 -40t-39.5 -83v-909z " />
<glyph unicode="&#x153;" horiz-adv-x="1433" d="M162 135l2 690q0 55 40 96.5t95 41.5h307q57 0 96 -43q45 43 109 43h317q55 0 99.5 -41t44.5 -97v-399h-533v-274q0 -31 21.5 -50.5t48.5 -19.5h381l2 -82h-381q-59 0 -109 47q-35 -45 -86 -45h-331q-53 0 -88 37t-35 96zM246 143q0 -61 61 -61h287q61 0 61 61v678 q0 61 -61 62h-287q-61 0 -61 -62v-678zM739 510h451v301q0 25 -22.5 47.5t-47.5 22.5h-307q-74 0 -74 -70v-301z" />
<glyph unicode="&#x178;" horiz-adv-x="1562" d="M31 676q0 285 200.5 484.5t483.5 199.5t483.5 -199.5t200.5 -484.5q0 -283 -201 -482.5t-483 -199.5q-283 0 -483.5 199.5t-200.5 482.5zM168 676q0 -225 159.5 -385t387.5 -160q227 0 387 160t160 385q0 227 -160 387t-387 160t-387 -160t-160 -387zM260 676 q0 190 133 323.5t322 133.5q188 0 321 -133.5t133 -323.5q0 -188 -133 -321.5t-321 -133.5t-321.5 133.5t-133.5 321.5zM334 782l182 -182l-31 -254l228 117l233 -109l-41 252l174 189l-254 39l-123 225l-114 -230z" />
<glyph unicode="&#x2c6;" horiz-adv-x="1075" d="M203 1151l196 195q39 39 90 38q57 0 101 -43l192 -190l-59 -47l-186 182q-18 18 -45 19q-25 0 -43 -19l-189 -182z" />
<glyph unicode="&#x2da;" horiz-adv-x="856" d="M233 1214l3 84q0 57 39.5 97.5t95.5 40.5h102q55 0 93 -40t38 -98v-67q0 -63 -34.5 -106.5t-86.5 -43.5h-127q-53 0 -88 37t-35 96zM317 1223q0 -61 62 -62h82q61 0 61 62v71q0 61 -61 62h-82q-61 0 -62 -62v-71z" />
<glyph unicode="&#x2dc;" horiz-adv-x="899" d="M164 1393l80 2q53 0 82 -23q16 -12 41 -51l69 -111q31 -49 76 -49h86q61 0 61 49v60h78v-60q0 -47 -36.5 -82.5t-86.5 -35.5l-112 2q-90 0 -150 104l-49 86q-23 41 -61 41h-76z" />
<glyph unicode="&#x2000;" horiz-adv-x="886" />
<glyph unicode="&#x2001;" horiz-adv-x="1775" />
<glyph unicode="&#x2002;" horiz-adv-x="886" />
<glyph unicode="&#x2003;" horiz-adv-x="1775" />
<glyph unicode="&#x2004;" horiz-adv-x="591" />
<glyph unicode="&#x2005;" horiz-adv-x="442" />
<glyph unicode="&#x2006;" horiz-adv-x="294" />
<glyph unicode="&#x2007;" horiz-adv-x="294" />
<glyph unicode="&#x2008;" horiz-adv-x="221" />
<glyph unicode="&#x2009;" horiz-adv-x="354" />
<glyph unicode="&#x200a;" horiz-adv-x="98" />
<glyph unicode="&#x2010;" horiz-adv-x="690" d="M84 475v78h500v-78h-500z" />
<glyph unicode="&#x2011;" horiz-adv-x="690" d="M84 475v78h500v-78h-500z" />
<glyph unicode="&#x2012;" horiz-adv-x="690" d="M84 475v78h500v-78h-500z" />
<glyph unicode="&#x2013;" horiz-adv-x="819" d="M82 553v82h657v-82h-657z" />
<glyph unicode="&#x2014;" horiz-adv-x="1067" d="M82 553v82h903v-82h-903z" />
<glyph unicode="&#x2018;" horiz-adv-x="411" d="M102 963l134 473h38l-67 -473h-105z" />
<glyph unicode="&#x2019;" horiz-adv-x="411" d="M102 963l70 473h102l-131 -473h-41z" />
<glyph unicode="&#x201a;" horiz-adv-x="417" d="M102 -6l70 473h102l-131 -473h-41z" />
<glyph unicode="&#x201c;" horiz-adv-x="653" d="M102 963l134 473h38l-67 -473h-105zM379 963l133 473h39l-70 -473h-102z" />
<glyph unicode="&#x201d;" horiz-adv-x="653" d="M102 963l70 473h102l-131 -473h-41zM379 963l70 473h102l-133 -473h-39z" />
<glyph unicode="&#x201e;" horiz-adv-x="690" d="M102 -6l70 473h102l-131 -473h-41zM377 -6l69 473h103l-133 -473h-39z" />
<glyph unicode="&#x2022;" horiz-adv-x="700" d="M156 510q0 80 56 136t136 56t137.5 -56t57.5 -136t-57.5 -137.5t-137.5 -57.5t-136 57.5t-56 137.5z" />
<glyph unicode="&#x2026;" horiz-adv-x="1040" d="M133 66q0 29 21.5 50t50.5 21q31 0 52.5 -21.5t21.5 -49.5q0 -31 -21.5 -51.5t-52.5 -20.5q-29 0 -50.5 20.5t-21.5 51.5zM420 66q0 29 20.5 50t51.5 21q29 0 50 -21.5t21 -49.5q0 -31 -21.5 -51.5t-49.5 -20.5q-31 0 -51.5 20.5t-20.5 51.5zM721 66q0 29 20.5 50 t51.5 21q29 0 50 -21.5t21 -49.5q0 -31 -21.5 -51.5t-49.5 -20.5q-31 0 -51.5 20.5t-20.5 51.5z" />
<glyph unicode="&#x202f;" horiz-adv-x="354" />
<glyph unicode="&#x2039;" horiz-adv-x="567" d="M72 487q0 53 41 86l286 232l58 -57l-281 -226q-20 -14 -20 -35q0 -20 20 -36l281 -226l-58 -57l-280 227q-47 37 -47 92z" />
<glyph unicode="&#x203a;" horiz-adv-x="567" d="M94 225l283 226q20 16 20 36t-20 35l-283 226l58 57l286 -232q43 -33 43 -86q0 -55 -47 -92l-282 -227z" />
<glyph unicode="&#x2044;" horiz-adv-x="1665" d="M80 1051q0 307 217 471q199 150 428 149q233 0 494 -155q233 -139 233 -429q0 -162 -86 -409q-68 -199 -512 -842l-223 -2q-127 217 -223 385q-229 403 -267 504q-61 166 -61 328zM156 1049q0 -154 63 -330q49 -135 447 -807l155 2q117 170 205 309q213 334 254 455 q94 268 94 405q0 238 -196 357q-238 141 -451 141q-209 0 -390 -138t-181 -394zM276 991q0 72 42 127.5t112 55.5q63 0 127 -56q109 -94 150 -287q16 -72 28 -266q-43 43 -239 162q-174 104 -199 162q-21 51 -21 102zM596 291q0 39 45 39h236q45 0 45 -39t-45 -39h-236 q-45 0 -45 39zM809 565q14 195 29 266q41 193 151 287q61 55 127 56q68 0 111 -55.5t43 -127.5q0 -51 -23 -102q-25 -57 -196 -162q-199 -119 -242 -162z" />
<glyph unicode="&#x205f;" horiz-adv-x="442" />
<glyph unicode="&#x2122;" horiz-adv-x="1878" d="M109 1251v68h675v-68h-301v-759h-69v759h-305zM901 492v837h45l361 -659l368 659h43v-837h-73v614l12 31l-29 -31l-307 -549h-29l-305 549l-26 31l10 -31v-614h-70z" />
<glyph unicode="&#xe000;" horiz-adv-x="965" d="M0 965h965v-965h-965v965z" />
<glyph unicode="&#xfb01;" horiz-adv-x="1095" d="M825 1196q0 66 64 66q66 0 65 -66q0 -63 -65 -63q-64 0 -64 63zM848 -6v969h88v-969h-88zM80 881v82h166v340q0 55 38 94t101 39h209v-80h-205q-61 0 -61 -62v-331h223v-82h-223v-881h-82v881h-166z" />
<glyph unicode="&#xfb02;" horiz-adv-x="1095" d="M852 0v1436h82v-1436h-82zM80 881v82h166v340q0 55 38 94t101 39h209v-80h-205q-61 0 -61 -62v-331h223v-82h-223v-881h-82v881h-166z" />
<glyph unicode="&#xfb03;" horiz-adv-x="1783" d="M1513 1196q0 66 64 66q66 0 65 -66q0 -63 -65 -63q-64 0 -64 63zM1536 -6v969h88v-969h-88zM768 881v82h166v340q0 55 38 94t101 39h209v-80h-205q-61 0 -61 -62v-331h223v-82h-223v-881h-82v881h-166zM80 881v82h166v340q0 55 38 94t101 39h209v-80h-205q-61 0 -61 -62 v-331h223v-82h-223v-881h-82v881h-166z" />
<glyph unicode="&#xfb04;" horiz-adv-x="1783" d="M1540 0v1436h82v-1436h-82zM768 881v82h166v340q0 55 38 94t101 39h209v-80h-205q-61 0 -61 -62v-331h223v-82h-223v-881h-82v881h-166zM80 881v82h166v340q0 55 38 94t101 39h209v-80h-205q-61 0 -61 -62v-331h223v-82h-223v-881h-82v881h-166z" />
</font>
</defs>
</svg>
